#!OML:ASF H:\Pregnant\Project 1\Capture day 1\Session 1\femalepreg.ASF
:FULLY-SPECIFIED
:DEGREES
647
root 19.6152 15.5127 -8.96181 -339.654 4.55065 0.598613
lowerback -11.6161 -1.364 5.60445
upperback -5.0936 -2.4915 4.4959
thorax 1.13582 -1.27295 1.22158
lowerneck -14.4245 -7.76492 -2.01544
upperneck 20.1174 -9.98056 -1.48151
head 8.67549 -5.00285 -1.32964
rclavicle 1.66979e-014 -2.70347e-014
rhumerus -33.8062 6.13132 -80.1457
rradius 20.4888
rwrist -4.72985
rhand -20.1406 -24.8871
rfingers 7.12502
rthumb 6.20407 -54.7762
lclavicle 1.66979e-014 -2.70347e-014
lhumerus -50.7687 -16.3341 90.6111
lradius 70.9325
lwrist 31.1961
lhand -24.6886 -9.60619
lfingers 7.12502
lthumb 1.81233 20.3659
rfemur -45.7602 14.1365 19.807
rtibia 45.7975
rfoot -15.1168 -8.9745
rtoes -9.97667
lfemur -33.5984 -2.06322 -21.0042
ltibia 64.6022
lfoot 8.86802 -15.0074
ltoes -26.4498
648
root 19.6438 15.5246 -8.79256 -339.614 4.14752 0.630773
lowerback -11.7573 -1.33774 5.86238
upperback -5.10448 -2.4968 4.49677
thorax 1.18847 -1.27822 1.07491
lowerneck -14.4314 -7.68417 -2.01069
upperneck 20.3382 -9.86255 -1.53947
head 8.7486 -4.95164 -1.34319
rclavicle -4.67144e-014 2.54444e-014
rhumerus -32.7051 6.95354 -81.1338
rradius 21.1322
rwrist -5.03702
rhand -20.9117 -25.0683
rfingers 7.12502
rthumb 5.45956 -54.978
lclavicle -4.67144e-014 2.54444e-014
lhumerus -51.5821 -15.4756 90.7736
lradius 68.4033
lwrist 31.19
lhand -25.5456 -10.1611
lfingers 7.12502
lthumb 0.984655 19.8164
rfemur -45.0484 14.2348 19.8353
rtibia 45.6767
rfoot -15.5744 -8.87827
rtoes -10.2347
lfemur -35.1002 -1.92169 -21.2262
ltibia 65.5797
lfoot 7.71463 -13.9402
ltoes -27.0061
649
root 19.6712 15.5364 -8.62332 -339.609 3.70081 0.62009
lowerback -11.843 -1.28395 6.1204
upperback -5.11367 -2.46144 4.4948
thorax 1.21353 -1.26375 0.931864
lowerneck -14.4602 -7.61758 -2.03368
upperneck 20.5837 -9.75729 -1.59706
head 8.83604 -4.90825 -1.35565
rclavicle -2.16675e-014 3.33958e-014
rhumerus -31.7013 7.88949 -82.1508
rradius 21.9301
rwrist -5.50075
rhand -21.6222 -25.2551
rfingers 7.12502
rthumb 4.77354 -55.1813
lclavicle -2.16675e-014 3.33958e-014
lhumerus -52.2383 -14.6753 90.9241
lradius 65.5614
lwrist 31.3429
lhand -26.4589 -10.5355
lfingers 7.12502
lthumb 0.102559 19.4442
rfemur -44.2776 14.4257 19.8889
rtibia 45.496
rfoot -15.9828 -8.80689
rtoes -10.5399
lfemur -36.5279 -1.75879 -21.3929
ltibia 66.3655
lfoot 6.54893 -12.842
ltoes -27.5121
650
root 19.6973 15.5479 -8.45403 -339.637 3.21599 0.581593
lowerback -11.8929 -1.20675 6.36179
upperback -5.107 -2.39163 4.49283
thorax 1.23791 -1.23171 0.80307
lowerneck -14.5257 -7.56754 -2.07564
upperneck 20.8398 -9.66489 -1.67374
head 8.93413 -4.87425 -1.37503
rclavicle -1.59028e-015 1.43125e-014
rhumerus -30.7798 8.92433 -83.1595
rradius 22.8847
rwrist -6.08979
rhand -22.2283 -25.385
rfingers 7.12502
rthumb 4.18828 -55.3236
lclavicle -1.59028e-015 1.43125e-014
lhumerus -52.7214 -13.9339 91.0641
lradius 62.4301
lwrist 31.6799
lhand -27.3674 -10.7666
lfingers 7.12502
lthumb -0.774932 19.2118
rfemur -43.4547 14.6972 19.9508
rtibia 45.2692
rfoot -16.3458 -8.7444
rtoes -10.816
lfemur -37.8655 -1.60932 -21.5154
ltibia 66.9492
lfoot 5.34906 -11.7401
ltoes -27.9054
651
root 19.7221 15.5593 -8.285 -339.685 2.69278 0.529959
lowerback -11.912 -1.10808 6.56836
upperback -5.09164 -2.28765 4.49014
thorax 1.25792 -1.18219 0.697815
lowerneck -14.6111 -7.53364 -2.14234
upperneck 21.089 -9.58455 -1.76374
head 9.03454 -4.84944 -1.39715
rclavicle -1.23246e-014 -6.36111e-015
rhumerus -29.9401 10.0155 -84.1314
rradius 23.9868
rwrist -6.75397
rhand -22.7071 -25.4261
rfingers 7.12502
rthumb 3.726 -55.3733
lclavicle -1.23246e-014 -6.36111e-015
lhumerus -53.0361 -13.2607 91.1987
lradius 59.0331
lwrist 32.1904
lhand -28.204 -10.7493
lfingers 7.12502
lthumb -1.58292 19.2246
rfemur -42.6004 15.032 20.0088
rtibia 45.007
rfoot -16.6695 -8.69496
rtoes -11.1201
lfemur -39.1128 -1.48821 -21.6023
ltibia 67.3233
lfoot 4.08654 -10.6639
ltoes -28.2101
652
root 19.7456 15.5704 -8.11631 -339.747 2.14231 0.480168
lowerback -11.8987 -0.996454 6.72584
upperback -5.07307 -2.15836 4.48678
thorax 1.26744 -1.11969 0.623
lowerneck -14.7241 -7.51314 -2.22311
upperneck 21.338 -9.51217 -1.87797
head 9.13983 -4.83229 -1.42745
rclavicle -1.23246e-014 -1.90833e-014
rhumerus -29.1763 11.1468 -85.0519
rradius 25.2202
rwrist -7.47264
rhand -23.0357 -25.3575
rfingers 7.12502
rthumb 3.40861 -55.31
lclavicle -1.23246e-014 -1.90833e-014
lhumerus -53.2077 -12.6561 91.3379
lradius 55.417
lwrist 32.922
lhand -28.9009 -10.6399
lfingers 7.12502
lthumb -2.256 19.3279
rfemur -41.7234 15.414 20.0514
rtibia 44.7211
rfoot -16.9552 -8.65411
rtoes -11.4109
lfemur -40.272 -1.40821 -21.6614
ltibia 67.4826
lfoot 2.75845 -9.63685
ltoes -28.4893
653
root 19.7678 15.5816 -7.94784 -339.818 1.56464 0.437829
lowerback -11.8735 -0.87138 6.8297
upperback -5.04338 -2.0051 4.47843
thorax 1.28593 -1.04426 0.575699
lowerneck -14.8399 -7.50615 -2.31802
upperneck 21.5533 -9.45324 -1.9928
head 9.2351 -4.82316 -1.45652
rclavicle 1.0138e-014 -3.65764e-014
rhumerus -28.4691 12.2861 -85.9116
rradius 26.5682
rwrist -8.23824
rhand -23.2536 -25.1436
rfingers 7.12502
rthumb 3.19818 -55.0993
lclavicle 1.0138e-014 -3.65764e-014
lhumerus -53.248 -12.131 91.4799
lradius 51.6443
lwrist 33.8854
lhand -29.4563 -10.4259
lfingers 7.12502
lthumb -2.79243 19.5356
rfemur -40.8343 15.8394 20.0723
rtibia 44.4206
rfoot -17.2106 -8.6246
rtoes -11.7287
lfemur -41.339 -1.37665 -21.694
ltibia 67.4288
lfoot 1.37003 -8.64186
ltoes -28.7278
654
root 19.789 15.5931 -7.77995 -339.887 0.97897 0.414651
lowerback -11.8363 -0.744334 6.8797
upperback -5.01257 -1.842 4.46062
thorax 1.30173 -0.963439 0.549795
lowerneck -14.9678 -7.50567 -2.41817
upperneck 21.7466 -9.40149 -2.10267
head 9.32587 -4.81764 -1.48395
rclavicle -4.01545e-014 3.18055e-014
rhumerus -27.8118 13.4281 -86.7189
rradius 28.0059
rwrist -9.03531
rhand -23.3586 -24.7665
rfingers 7.12502
rthumb 3.09683 -54.7238
lclavicle -4.01545e-014 3.18055e-014
lhumerus -53.1808 -11.6685 91.6132
lradius 47.7527
lwrist 35.0699
lhand -29.8809 -9.90747
lfingers 7.12502
lthumb -3.20244 20.0482
rfemur -39.9498 16.2783 20.0673
rtibia 44.1169
rfoot -17.4427 -8.60156
rtoes -12.0765
lfemur -42.3445 -1.40547 -21.7018
ltibia 67.159
lfoot -0.0141234 -7.67584
ltoes -28.9062
655
root 19.8083 15.605 -7.6149 -339.907 0.415752 0.414593
lowerback -11.7884 -0.623646 6.86879
upperback -5.01464 -1.67678 4.43263
thorax 1.27954 -0.882396 0.547876
lowerneck -15.1001 -7.51071 -2.51722
upperneck 21.9278 -9.36028 -2.19667
head 9.41431 -4.81549 -1.50744
rclavicle 2.78299e-015 -1.27222e-014
rhumerus -27.2144 14.5546 -87.4818
rradius 29.5084
rwrist -9.85495
rhand -23.3748 -24.2516
rfingers 7.12502
rthumb 3.08114 -54.209
lclavicle 2.78299e-015 -1.27222e-014
lhumerus -53.0455 -11.2642 91.7303
lradius 43.7855
lwrist 36.4443
lhand -30.151 -9.02938
lfingers 7.12502
lthumb -3.46326 20.9222
rfemur -39.1371 16.7052 20.0312
rtibia 43.8247
rfoot -17.645 -8.5906
rtoes -12.4801
lfemur -43.3699 -1.5004 -21.6722
ltibia 66.6881
lfoot -1.32914 -6.73944
ltoes -29.0112
656
root 19.8262 15.6172 -7.4524 -339.89 -0.124366 0.440957
lowerback -11.7429 -0.511434 6.8016
upperback -5.03032 -1.51552 4.38835
thorax 1.24569 -0.803266 0.559646
lowerneck -15.2428 -7.51873 -2.60535
upperneck 22.0876 -9.32977 -2.26846
head 9.49803 -4.81516 -1.52634
rclavicle 9.93923e-016 6.52014e-014
rhumerus -26.6418 15.6615 -88.2041
rradius 31.0489
rwrist -10.6866
rhand -23.294 -23.5924
rfingers 7.12502
rthumb 3.15922 -53.5488
lclavicle 9.93923e-016 6.52014e-014
lhumerus -52.8478 -10.8858 91.7938
lradius 39.816
lwrist 37.9319
lhand -30.2132 -8.12992
lfingers 7.12502
lthumb -3.52331 21.8207
rfemur -38.3822 17.1081 19.9671
rtibia 43.5514
rfoot -17.8306 -8.57869
rtoes -12.8997
lfemur -44.3924 -1.65507 -21.6082
ltibia 66.0153
lfoot -2.53088 -5.81352
ltoes -29.091
